<svg xmlns="http://www.w3.org/2000/svg" xmlns:xlink="http://www.w3.org/1999/xlink" width="500" zoomAndPan="magnify" viewBox="0 0 375 374.999991" height="500" preserveAspectRatio="xMidYMid meet" version="1.0"><defs><g/><clipPath id="ae3e3e593b"><path d="M 112.5 99.425781 L 262.5 99.425781 L 262.5 221.675781 L 112.5 221.675781 Z M 112.5 99.425781 " clip-rule="nonzero"/></clipPath></defs><g clip-path="url(#ae3e3e593b)"><path fill="#545454" d="M 261.90625 175.242188 C 261.824219 175.269531 261.757812 175.324219 261.722656 175.425781 C 261.710938 175.433594 261.707031 175.441406 261.695312 175.453125 C 261.703125 175.136719 260.742188 174.53125 260.507812 174.277344 C 260.085938 173.832031 259.710938 173.328125 259.421875 172.789062 C 258.898438 171.804688 258.742188 170.765625 259.1875 169.796875 C 259.410156 169.636719 259.46875 169.53125 259.492188 169.246094 C 259.5625 169.082031 259.480469 168.925781 259.339844 168.847656 C 259.332031 168.847656 259.332031 168.84375 259.332031 168.84375 C 259.210938 168.769531 259.113281 168.726562 259.019531 168.699219 C 259.046875 168 258.898438 167.261719 258.511719 166.46875 C 257.433594 164.261719 255.085938 163.386719 252.777344 163.445312 C 252.789062 163.242188 252.660156 163.015625 252.398438 162.988281 C 250.054688 162.734375 247.71875 162.425781 245.382812 162.085938 C 246.703125 161.332031 248.007812 160.542969 249.285156 159.714844 C 249.585938 159.523438 249.445312 159.085938 249.136719 159.011719 C 248.707031 158.894531 248.277344 158.785156 247.839844 158.667969 C 247.824219 158.664062 247.8125 158.667969 247.804688 158.667969 C 247.769531 158.613281 247.726562 158.558594 247.648438 158.519531 C 244.519531 156.90625 245.566406 152.042969 247.242188 149.785156 C 247.402344 149.566406 247.308594 149.332031 247.140625 149.210938 C 247.121094 149.1875 247.101562 149.160156 247.074219 149.144531 C 246.242188 148.625 244.421875 148.265625 244.261719 148.230469 C 241.28125 147.539062 238.433594 146.890625 235.691406 146.265625 C 238.070312 139.101562 237.847656 131.082031 237.199219 125.453125 C 236.363281 118.222656 233.402344 112.519531 228.414062 108.5 C 223.808594 104.773438 217.203125 102.128906 208.21875 100.398438 C 204.894531 99.753906 201.34375 99.425781 197.667969 99.425781 C 191.972656 99.425781 185.917969 100.226562 180.15625 101.730469 C 176.300781 102.738281 172.222656 104.070312 166.929688 106.046875 C 164.15625 107.082031 160.589844 108.609375 157.644531 111.238281 L 157.476562 111.394531 C 156.550781 112.03125 155.722656 112.882812 154.917969 113.707031 C 154.636719 114 154.355469 114.28125 154.078125 114.550781 C 153.722656 114.898438 153.359375 115.242188 152.992188 115.582031 C 152.074219 116.441406 151.125 117.335938 150.316406 118.292969 C 150.273438 118.320312 150.234375 118.355469 150.199219 118.394531 C 149.304688 117.789062 148.277344 117.363281 147.285156 116.949219 C 146.863281 116.773438 146.4375 116.597656 146.027344 116.410156 C 145.671875 116.25 145.375 116.171875 145.109375 116.171875 C 144.445312 116.171875 144.03125 116.683594 143.855469 117.742188 C 143.320312 120.957031 143.101562 125.234375 145.066406 127.257812 L 145.039062 127.40625 L 145.039062 127.425781 C 145.117188 128.476562 145.023438 129.53125 144.933594 130.558594 C 144.832031 131.738281 144.726562 132.957031 144.875 134.175781 C 145.039062 135.507812 145.375 136.886719 145.933594 138.5 C 144.96875 138.554688 144.152344 138.628906 143.382812 138.730469 C 142.5 138.847656 141.609375 139.058594 140.753906 139.261719 C 139.777344 139.492188 138.769531 139.734375 137.777344 139.828125 C 137.5 139.855469 137.355469 140.105469 137.367188 140.324219 C 137.378906 140.550781 137.535156 140.710938 137.796875 140.710938 C 137.796875 140.710938 137.800781 140.710938 137.800781 140.710938 C 138.792969 140.617188 139.777344 140.378906 140.730469 140.148438 C 141.53125 139.957031 142.363281 139.757812 143.1875 139.640625 C 144.148438 139.507812 145.15625 139.414062 146.25 139.359375 C 146.367188 139.664062 146.753906 140.640625 146.753906 140.640625 C 146.355469 140.777344 145.960938 140.925781 145.5625 141.074219 C 145.035156 141.273438 144.5 141.472656 143.964844 141.640625 L 143.789062 141.699219 C 142.148438 142.230469 140.445312 142.789062 139.160156 144.050781 C 139.035156 144.179688 138.996094 144.347656 139.0625 144.507812 C 139.132812 144.679688 139.304688 144.800781 139.488281 144.800781 C 139.597656 144.800781 139.695312 144.757812 139.785156 144.671875 C 140.941406 143.539062 142.503906 143.035156 144.015625 142.546875 L 144.621094 142.347656 C 145.109375 142.1875 145.589844 142.007812 146.070312 141.824219 C 146.410156 141.699219 146.753906 141.570312 147.09375 141.449219 C 147.34375 142.027344 147.605469 142.605469 147.898438 143.179688 C 140.972656 145.003906 134.0625 146.894531 127.175781 148.863281 C 126.960938 148.921875 126.898438 149.101562 126.933594 149.265625 C 126.425781 149.382812 125.933594 149.578125 125.484375 149.878906 C 122.714844 151.671875 121.941406 155.179688 122.339844 158.480469 L 116.625 161.054688 C 116.242188 161.230469 116.425781 161.765625 116.78125 161.765625 C 116.8125 161.800781 116.839844 161.832031 116.875 161.863281 C 116.894531 161.964844 116.949219 162.058594 117.078125 162.101562 C 117.089844 162.109375 117.105469 162.113281 117.117188 162.117188 C 118.773438 163.839844 120.113281 165.878906 120.191406 168.347656 C 120.277344 171 118.757812 172.8125 116.761719 174.277344 C 116.714844 174.253906 116.660156 174.234375 116.609375 174.210938 C 116.195312 174.035156 115.933594 174.613281 116.246094 174.855469 C 116.277344 175.105469 116.578125 175.324219 116.851562 175.136719 C 116.90625 175.097656 117.472656 175.402344 117.558594 175.441406 C 117.800781 175.546875 118.046875 175.648438 118.289062 175.753906 C 118.78125 175.964844 119.265625 176.171875 119.753906 176.390625 C 120.476562 176.699219 121.199219 177.011719 121.917969 177.320312 C 120.621094 178.179688 119.3125 179.046875 118.015625 179.90625 C 117.6875 180.121094 117.363281 180.335938 117.039062 180.550781 C 116.746094 180.742188 116.457031 180.941406 116.203125 181.179688 C 112.433594 184.71875 112.457031 188.902344 112.539062 190.207031 C 112.726562 193.1875 114.511719 195.835938 117.128906 197.207031 C 117.15625 197.304688 117.214844 197.394531 117.347656 197.433594 C 141.292969 203.910156 164.765625 210.367188 188.894531 216.128906 C 195.828125 217.789062 202.765625 219.441406 209.699219 221.101562 C 209.726562 221.105469 209.75 221.101562 209.769531 221.101562 C 209.765625 221.160156 209.777344 221.226562 209.816406 221.277344 C 209.976562 221.496094 210.058594 221.578125 210.34375 221.570312 C 210.378906 221.570312 210.414062 221.558594 210.449219 221.546875 C 210.570312 221.683594 210.789062 221.75 210.964844 221.601562 C 228.847656 207.304688 245.957031 192.058594 262.21875 175.941406 C 262.261719 175.914062 262.300781 175.882812 262.328125 175.835938 C 262.355469 175.808594 262.390625 175.777344 262.421875 175.75 C 262.714844 175.417969 262.222656 174.921875 261.90625 175.242188 Z M 248.375 166.984375 C 248.601562 166.816406 248.820312 166.636719 249.046875 166.460938 C 249.953125 165.75 250.847656 165.035156 251.726562 164.28125 C 254.015625 163.910156 256.703125 164.496094 257.816406 166.757812 C 258.171875 167.476562 258.285156 168.144531 258.242188 168.765625 C 258.226562 168.957031 258.1875 169.152344 258.144531 169.332031 C 257.234375 170.492188 255.875 171.273438 254.6875 172.121094 C 253.445312 173.015625 252.199219 173.910156 250.953125 174.800781 C 248.695312 176.417969 246.441406 178.035156 244.183594 179.652344 C 243.457031 180.113281 242.730469 180.582031 241.996094 181.039062 C 240.304688 182.09375 238.609375 183.136719 236.90625 184.164062 C 235.203125 185.195312 233.496094 186.214844 231.777344 187.230469 C 230.066406 188.246094 228.347656 189.246094 226.621094 190.25 C 224.898438 191.25 223.175781 192.246094 221.449219 193.238281 C 219.726562 194.230469 217.996094 195.222656 216.273438 196.214844 C 214.546875 197.207031 212.816406 198.199219 211.09375 199.195312 C 209.371094 200.195312 207.644531 201.191406 205.925781 202.199219 C 204.542969 203.011719 203.160156 203.828125 201.785156 204.648438 C 201.496094 204.820312 201.207031 204.984375 200.917969 205.15625 C 200.875 205.183594 200.824219 205.210938 200.78125 205.238281 C 199.925781 205.75 199.074219 206.261719 198.21875 206.773438 C 197.796875 207.035156 197.367188 207.292969 196.941406 207.550781 C 196.628906 207.746094 196.320312 207.976562 195.972656 208.097656 C 196.996094 206.8125 197.734375 205.363281 198.144531 203.765625 C 198.160156 203.769531 198.171875 203.769531 198.1875 203.777344 C 198.488281 201.105469 198.164062 198.257812 195.828125 196.632812 C 205.734375 191.746094 215.523438 186.628906 225.171875 181.253906 C 233.074219 176.863281 241.175781 172.507812 248.375 166.984375 Z M 241.121094 182.457031 C 230.824219 190.585938 220.523438 198.71875 210.230469 206.839844 C 210.210938 206.726562 210.140625 206.621094 209.984375 206.582031 L 202.832031 204.890625 C 203.792969 204.316406 204.753906 203.742188 205.71875 203.179688 C 207.441406 202.171875 209.164062 201.164062 210.894531 200.167969 C 212.625 199.164062 214.355469 198.171875 216.089844 197.171875 C 217.824219 196.175781 219.554688 195.183594 221.289062 194.1875 C 223.019531 193.1875 224.753906 192.191406 226.480469 191.1875 C 228.207031 190.183594 229.933594 189.175781 231.652344 188.160156 C 233.371094 187.148438 235.089844 186.128906 236.796875 185.09375 C 238.246094 184.226562 239.683594 183.34375 241.121094 182.457031 Z M 247.308594 159.214844 C 247.363281 159.242188 247.410156 159.253906 247.460938 159.257812 C 247.511719 159.335938 247.582031 159.394531 247.691406 159.429688 L 248.074219 159.527344 C 245.578125 161.105469 243.003906 162.53125 240.398438 163.894531 C 240.101562 164.046875 239.804688 164.203125 239.507812 164.351562 C 233.464844 167.4375 227.207031 170.09375 220.996094 172.851562 C 211.292969 177.160156 201.855469 182.015625 192.429688 186.90625 C 189.585938 182.921875 188.679688 176.300781 194.230469 174.132812 C 194.277344 174.117188 194.308594 174.078125 194.347656 174.046875 C 194.714844 173.992188 195.0625 173.886719 195.394531 173.6875 C 195.464844 173.644531 195.507812 173.589844 195.53125 173.535156 C 205.34375 169.171875 215.121094 164.730469 224.871094 160.222656 C 225.199219 160.066406 225.53125 159.914062 225.863281 159.765625 C 232.578125 156.65625 239.28125 153.527344 245.964844 150.355469 C 244.488281 153.21875 244.132812 157.578125 247.308594 159.214844 Z M 162.828125 176.476562 C 161.828125 171.691406 163.015625 166.796875 166.082031 163.007812 C 169.917969 164.609375 173.75 166.203125 177.601562 167.761719 C 180.273438 168.84375 182.917969 169.984375 185.597656 171.035156 C 186.945312 171.566406 188.292969 172.074219 189.660156 172.535156 C 190.335938 172.765625 191.019531 172.988281 191.703125 173.199219 C 191.878906 173.253906 193.140625 173.789062 193.273438 173.722656 C 188.253906 176.222656 188.695312 182.5 191.378906 186.75 C 191.179688 186.4375 183.308594 184.0625 181.675781 183.476562 C 179.40625 182.660156 177.144531 181.839844 174.875 181.023438 C 170.851562 179.574219 166.835938 178.125 162.816406 176.675781 C 162.832031 176.621094 162.84375 176.554688 162.828125 176.476562 Z M 161.996094 176.382812 C 160.195312 175.734375 158.386719 175.082031 156.585938 174.433594 C 156.636719 174.371094 156.671875 174.292969 156.679688 174.195312 C 156.785156 170.039062 157.589844 164.417969 160.578125 161.1875 C 160.777344 161.109375 160.980469 161.039062 161.183594 160.960938 C 162.5625 161.539062 163.945312 162.113281 165.320312 162.691406 C 162.265625 166.601562 161.070312 171.5 161.996094 176.382812 Z M 155.015625 166.136719 C 155.347656 164.992188 155.808594 163.644531 156.476562 162.449219 C 156.5625 162.4375 156.644531 162.433594 156.734375 162.417969 C 157.578125 162.277344 158.355469 162.035156 159.085938 161.765625 C 156.671875 165.210938 155.972656 170.242188 155.875 174.183594 C 155.417969 174.019531 154.960938 173.851562 154.496094 173.6875 C 154.496094 173.660156 154.507812 173.632812 154.503906 173.601562 C 154.171875 171.085938 154.316406 168.574219 155.015625 166.136719 Z M 153.6875 173.390625 C 152.796875 173.070312 151.902344 172.746094 151.003906 172.425781 C 150.554688 172.261719 150.0625 172.183594 149.699219 171.914062 C 149.566406 171.8125 149.453125 171.691406 149.359375 171.527344 C 148.835938 170.585938 149.0625 169.324219 148.988281 168.292969 C 148.890625 166.84375 148.894531 165.363281 149.277344 163.949219 C 149.523438 163.027344 149.910156 162.167969 150.378906 161.351562 C 150.558594 161.492188 150.746094 161.617188 150.957031 161.738281 C 151.957031 162.304688 153.199219 162.597656 154.636719 162.597656 C 154.921875 162.597656 155.21875 162.582031 155.523438 162.558594 C 155.078125 163.457031 154.722656 164.394531 154.4375 165.277344 C 153.578125 167.917969 153.375 170.644531 153.6875 173.390625 Z M 148.492188 171.515625 C 147.066406 171.003906 145.640625 170.484375 144.214844 169.972656 C 144.339844 169.890625 144.429688 169.742188 144.382812 169.546875 C 143.234375 164.765625 144.796875 159.996094 148.464844 156.898438 C 148.453125 157.296875 148.472656 157.6875 148.527344 158.0625 C 148.679688 159.164062 149.105469 160.078125 149.78125 160.800781 C 149.347656 161.535156 148.976562 162.300781 148.695312 163.117188 C 147.773438 165.816406 148.25 168.738281 148.492188 171.515625 Z M 162.199219 160.621094 C 163.835938 160.113281 165.566406 159.75 167.378906 159.550781 C 169.707031 159.296875 172.1875 159.164062 174.757812 159.164062 C 179.171875 159.164062 183.984375 159.535156 189.472656 160.300781 C 191.230469 160.542969 193.03125 160.835938 194.855469 161.125 C 199.972656 161.949219 205.261719 162.800781 210.449219 162.800781 C 214.050781 162.800781 217.257812 162.378906 220.160156 161.527344 C 211.796875 165.371094 203.421875 169.179688 195.007812 172.917969 C 194.910156 172.960938 194.855469 173.03125 194.816406 173.109375 C 194.585938 173.226562 194.347656 173.292969 194.082031 173.308594 C 193.8125 173.324219 193.109375 172.839844 192.820312 172.730469 C 192.257812 172.515625 191.691406 172.320312 191.125 172.117188 C 190 171.714844 188.882812 171.308594 187.757812 170.898438 C 185.476562 170.0625 183.199219 169.207031 180.933594 168.320312 C 175.96875 166.375 171.035156 164.355469 166.117188 162.289062 C 166.042969 162.222656 165.960938 162.183594 165.867188 162.183594 C 164.648438 161.667969 163.425781 161.136719 162.199219 160.621094 Z M 243.832031 148.914062 C 244.757812 149.027344 245.46875 149.265625 246.007812 149.472656 C 239.632812 152.5 233.238281 155.488281 226.832031 158.453125 C 231.089844 155.582031 233.765625 151.542969 235.386719 147.117188 C 240.476562 148.222656 243.765625 148.902344 243.832031 148.914062 Z M 151.695312 141.820312 L 151.546875 141.847656 C 150.59375 142.183594 149.644531 142.550781 148.730469 142.941406 C 148.449219 142.402344 148.179688 141.824219 147.910156 141.183594 C 148.847656 140.910156 149.605469 140.78125 150.414062 140.78125 C 150.695312 140.78125 150.839844 140.5625 150.839844 140.347656 C 150.839844 140.125 150.695312 139.90625 150.355469 139.902344 C 149.511719 139.902344 148.625 140.050781 147.574219 140.363281 C 147.4375 140.011719 147.296875 139.664062 147.171875 139.316406 C 147.914062 139.289062 148.664062 139.273438 149.414062 139.273438 C 149.574219 139.273438 149.707031 139.199219 149.78125 139.066406 C 149.863281 138.925781 149.863281 138.742188 149.78125 138.601562 C 149.707031 138.46875 149.574219 138.394531 149.414062 138.394531 C 148.558594 138.394531 147.707031 138.414062 146.851562 138.445312 C 146.179688 136.542969 145.804688 134.984375 145.691406 133.535156 C 145.605469 132.503906 145.707031 131.460938 145.800781 130.453125 C 145.894531 129.457031 145.992188 128.425781 145.914062 127.398438 C 145.910156 127.351562 145.898438 127.304688 145.886719 127.304688 C 145.882812 127.304688 145.875 127.3125 145.871094 127.324219 C 145.953125 127.152344 145.925781 126.96875 145.792969 126.832031 C 144.152344 125.167969 144.390625 122.027344 144.558594 119.734375 L 144.582031 119.441406 C 144.59375 119.308594 144.59375 119.132812 144.59375 118.9375 C 144.59375 118.476562 144.597656 117.847656 144.753906 117.601562 C 144.90625 117.351562 145.121094 117.230469 145.398438 117.230469 C 145.734375 117.230469 146.101562 117.394531 146.433594 117.542969 L 147.007812 117.789062 C 148.40625 118.367188 149.859375 118.960938 150.875 120.144531 C 150.976562 120.265625 151.09375 120.296875 151.175781 120.296875 C 151.339844 120.296875 151.5 120.183594 151.578125 120.019531 C 151.65625 119.855469 151.628906 119.679688 151.511719 119.539062 C 151.324219 119.320312 151.121094 119.125 150.90625 118.9375 C 151.6875 118.019531 152.582031 117.179688 153.441406 116.375 C 153.726562 116.105469 154.011719 115.835938 154.300781 115.566406 C 154.664062 115.214844 155.015625 114.847656 155.363281 114.484375 C 155.765625 114.074219 156.167969 113.652344 156.585938 113.257812 C 156.945312 112.921875 157.355469 112.628906 157.757812 112.347656 C 158.183594 112.050781 158.628906 111.734375 159.007812 111.367188 C 159.820312 110.582031 160.753906 109.984375 161.484375 109.550781 C 163.140625 108.566406 165.03125 107.691406 167.433594 106.800781 C 171.898438 105.152344 175.34375 104.003906 178.605469 103.070312 C 184.871094 101.285156 191.316406 100.375 197.761719 100.375 C 199.613281 100.375 201.476562 100.453125 203.292969 100.605469 C 207.484375 100.960938 211.441406 102.019531 215.085938 103.105469 C 218.238281 104.046875 221.914062 105.28125 225.265625 107.34375 C 231.371094 111.085938 235.15625 117.042969 236.210938 124.578125 C 236.765625 128.496094 237.585938 137.75 234.78125 146.046875 C 234.679688 146.339844 234.578125 146.628906 234.472656 146.917969 C 232.390625 152.5 228.582031 157.539062 221.808594 160.0625 C 218.4375 161.320312 214.683594 161.929688 210.34375 161.929688 C 205.203125 161.929688 199.949219 161.082031 194.871094 160.253906 C 192.628906 159.890625 190.511719 159.550781 188.398438 159.273438 C 183.203125 158.597656 178.714844 158.265625 174.675781 158.265625 C 171.160156 158.265625 167.988281 158.503906 164.976562 159 L 164.492188 159.085938 C 163.378906 159.285156 162.210938 159.609375 160.941406 160.085938 C 160.882812 160.105469 160.820312 160.128906 160.753906 160.152344 C 160.496094 160.25 160.242188 160.359375 159.984375 160.464844 C 159.902344 160.5 159.824219 160.53125 159.742188 160.5625 C 159.136719 160.824219 158.507812 161.089844 157.863281 161.269531 C 157.609375 161.339844 157.355469 161.402344 157.109375 161.457031 C 156.75 161.535156 156.394531 161.59375 156.039062 161.640625 C 155.59375 161.695312 155.152344 161.734375 154.722656 161.734375 C 153.941406 161.734375 153.203125 161.632812 152.53125 161.441406 C 151.871094 161.246094 151.3125 160.960938 150.863281 160.585938 C 150.652344 160.414062 150.453125 160.226562 150.289062 160.011719 C 149.980469 159.621094 149.753906 159.167969 149.601562 158.644531 C 149.386719 157.902344 149.351562 157.074219 149.441406 156.222656 C 149.46875 155.972656 149.507812 155.71875 149.550781 155.464844 C 149.9375 153.4375 150.976562 151.363281 152.144531 150.003906 L 152.246094 150.070312 L 152.3125 149.96875 C 156.023438 144.628906 161.957031 140.5625 168.578125 138.808594 C 172.632812 137.738281 177.199219 137.195312 182.152344 137.195312 C 185.941406 137.195312 189.996094 137.515625 194.199219 138.136719 C 196.742188 138.515625 199.328125 139.011719 201.828125 139.492188 C 203.464844 139.808594 205.121094 140.121094 206.785156 140.40625 C 209.425781 140.863281 212.089844 141.246094 214.769531 141.4375 C 215.929688 141.519531 217.097656 141.578125 218.261719 141.578125 L 218.925781 141.570312 C 222.414062 141.515625 225.582031 140.253906 227.621094 138.109375 C 229.347656 136.285156 230.214844 133.894531 230.113281 131.203125 C 230.105469 130.921875 229.878906 130.777344 229.664062 130.777344 C 229.542969 130.777344 229.425781 130.828125 229.34375 130.90625 C 229.265625 130.984375 229.226562 131.085938 229.234375 131.207031 C 229.367188 134.820312 227.695312 137.796875 224.648438 139.378906 C 222.898438 140.285156 220.84375 140.710938 218.183594 140.710938 C 216.832031 140.710938 215.46875 140.605469 214.066406 140.484375 C 211.789062 140.292969 209.507812 139.964844 207.242188 139.59375 C 205.332031 139.277344 203.4375 138.917969 201.570312 138.570312 C 199.851562 138.246094 198.105469 137.921875 196.347656 137.625 C 193.761719 137.1875 191.15625 136.8125 188.542969 136.617188 C 186.140625 136.433594 183.9375 136.339844 181.808594 136.339844 C 180.570312 136.339844 179.378906 136.378906 178.222656 136.445312 C 175.828125 136.570312 173.589844 136.832031 171.507812 137.226562 C 170.113281 137.492188 168.789062 137.8125 167.519531 138.199219 C 166.6875 138.449219 165.878906 138.714844 165.097656 139.019531 C 164.125 139.398438 163.179688 139.828125 162.253906 140.296875 C 161.203125 140.832031 160.183594 141.421875 159.207031 142.070312 C 157.316406 143.324219 155.597656 144.773438 154.089844 146.371094 C 153.699219 146.785156 153.320312 147.21875 152.949219 147.660156 C 152.921875 147.640625 152.894531 147.617188 152.867188 147.601562 C 151.453125 146.835938 150.234375 145.5625 149.160156 143.703125 C 149.285156 143.648438 149.417969 143.597656 149.546875 143.550781 C 150.289062 143.242188 151.042969 142.949219 151.796875 142.679688 C 152.046875 142.589844 152.125 142.359375 152.089844 142.164062 C 152.085938 142.132812 152.074219 142.109375 152.0625 142.082031 C 151.996094 141.929688 151.859375 141.820312 151.695312 141.820312 Z M 145.078125 144.738281 C 143.933594 145.390625 142.878906 146.085938 141.898438 146.835938 C 141.734375 146.960938 141.679688 147.160156 141.746094 147.359375 C 141.804688 147.539062 141.960938 147.660156 142.125 147.660156 C 142.207031 147.660156 142.289062 147.632812 142.367188 147.574219 C 144.097656 146.25 146.058594 145.097656 148.359375 144.0625 C 149.523438 146.105469 150.84375 147.511719 152.398438 148.359375 C 152.238281 148.570312 152.074219 148.792969 151.882812 149.0625 C 150.488281 150.484375 149.191406 152.84375 148.6875 155.171875 C 148.410156 155.082031 148.136719 154.980469 147.859375 154.886719 C 147.023438 154.59375 146.183594 154.308594 145.34375 154.027344 C 143.65625 153.460938 141.972656 152.914062 140.28125 152.367188 C 139.789062 152.207031 139.304688 152.046875 138.816406 151.882812 C 138.460938 151.765625 138.109375 151.652344 137.757812 151.53125 C 135.714844 150.839844 133.664062 150.15625 131.585938 149.625 C 130.773438 149.414062 129.894531 149.226562 129.019531 149.15625 C 134.359375 147.640625 139.71875 146.167969 145.078125 144.738281 Z M 124.1875 152.507812 C 126.382812 148.539062 130.886719 150.164062 134.339844 151.265625 C 135.125 151.515625 135.90625 151.761719 136.6875 152.011719 C 137.046875 152.125 137.410156 152.234375 137.769531 152.351562 C 141.347656 153.476562 144.941406 154.601562 148.472656 155.863281 C 144.203125 159.148438 142.328125 164.429688 143.605469 169.757812 C 141.664062 169.058594 139.710938 168.351562 137.769531 167.652344 C 137.5 167.554688 137.222656 167.453125 136.953125 167.359375 C 132.792969 165.859375 128.636719 164.363281 124.476562 162.863281 C 123.796875 161.648438 123.335938 160.316406 123.125 158.945312 C 123.085938 158.683594 123.054688 158.421875 123.039062 158.160156 C 122.878906 156.214844 123.230469 154.246094 124.1875 152.507812 Z M 117.539062 174.609375 C 119.457031 173.121094 120.90625 171.261719 120.9375 168.671875 C 120.972656 166.394531 119.984375 164.394531 118.609375 162.679688 C 123.75 164.660156 128.695312 167.050781 133.574219 169.585938 C 133.8125 169.707031 134.050781 169.828125 134.28125 169.957031 C 141.234375 173.582031 148.0625 177.464844 155.132812 180.835938 C 167.949219 186.953125 181.242188 192 194.519531 197.015625 C 194.585938 197.089844 194.683594 197.128906 194.792969 197.117188 C 194.980469 197.191406 195.167969 197.261719 195.359375 197.332031 C 195.425781 197.359375 195.488281 197.359375 195.542969 197.355469 C 197.382812 198.773438 197.675781 201.042969 197.476562 203.269531 C 197.453125 203.304688 197.433594 203.339844 197.421875 203.386719 C 197.03125 205.023438 196.304688 206.5 195.21875 207.789062 C 195.152344 207.867188 195.128906 207.953125 195.125 208.042969 C 186.910156 204.503906 178.703125 200.964844 170.488281 197.433594 C 169.003906 196.792969 167.515625 196.148438 166.027344 195.507812 C 151.820312 189.390625 137.621094 183.273438 123.414062 177.148438 C 123.160156 177.039062 122.898438 176.929688 122.648438 176.820312 C 120.949219 176.074219 119.25 175.339844 117.539062 174.609375 Z M 122.675781 177.632812 C 122.675781 177.632812 122.675781 177.640625 122.675781 177.632812 C 124.636719 178.476562 126.585938 179.320312 128.542969 180.164062 C 130.496094 181.007812 132.453125 181.851562 134.40625 182.6875 C 136.363281 183.53125 138.320312 184.375 140.273438 185.214844 C 142.230469 186.054688 144.1875 186.898438 146.140625 187.738281 C 148.097656 188.574219 150.050781 189.425781 152.007812 190.261719 C 153.964844 191.105469 155.917969 191.949219 157.875 192.785156 C 158.839844 193.199219 159.800781 193.617188 160.761719 194.03125 C 152.921875 191.859375 145.101562 189.613281 137.300781 187.273438 C 130.761719 185.316406 124.25 183.289062 117.746094 181.238281 C 117.695312 181.210938 117.644531 181.195312 117.589844 181.191406 C 117.519531 181.167969 117.453125 181.144531 117.378906 181.125 C 119.144531 179.972656 120.90625 178.804688 122.675781 177.632812 Z M 137.597656 202.265625 C 130.882812 200.546875 124.535156 198.65625 117.855469 196.84375 C 117.832031 196.828125 117.832031 196.800781 117.804688 196.789062 C 115.078125 195.507812 113.199219 192.78125 113.199219 189.726562 C 113.199219 186.53125 114.652344 183.699219 116.949219 181.707031 C 132.761719 186.683594 149.332031 191.632812 165.3125 196.011719 C 166.738281 196.628906 168.164062 197.238281 169.589844 197.855469 C 171.546875 198.699219 173.503906 199.542969 175.457031 200.382812 C 177.414062 201.226562 179.371094 202.066406 181.324219 202.90625 C 183.28125 203.75 185.234375 204.59375 187.191406 205.429688 C 189.148438 206.273438 191.101562 207.117188 193.058594 207.953125 C 193.476562 208.136719 193.902344 208.320312 194.320312 208.5 C 194.707031 208.664062 195.113281 208.910156 195.53125 208.984375 C 196 209.074219 196.339844 208.792969 196.714844 208.5625 C 197.140625 208.300781 197.570312 208.042969 197.992188 207.785156 C 198.847656 207.265625 199.703125 206.746094 200.5625 206.234375 C 201.027344 205.953125 201.496094 205.679688 201.972656 205.402344 C 204.578125 206.027344 207.1875 206.648438 209.800781 207.253906 C 209.847656 207.265625 209.890625 207.265625 209.929688 207.261719 C 209.964844 207.441406 210.167969 207.589844 210.371094 207.546875 C 209.359375 209.707031 208.71875 212.007812 208.59375 214.402344 C 208.53125 215.621094 208.597656 216.855469 208.863281 218.050781 C 208.894531 218.203125 209.339844 219.484375 209.761719 220.390625 C 185.597656 214.617188 161.660156 208.429688 137.597656 202.265625 Z M 210.679688 220.914062 C 210.640625 220.609375 210.472656 220.402344 210.277344 220.007812 C 209.613281 218.621094 209.324219 217.125 209.277344 215.59375 C 209.183594 212.722656 209.953125 209.890625 211.238281 207.34375 C 211.308594 207.195312 211.273438 207.054688 211.191406 206.957031 C 223.015625 197.625 234.835938 188.292969 246.65625 178.960938 C 247.121094 178.597656 247.582031 178.230469 248.050781 177.867188 C 249.566406 176.78125 251.082031 175.695312 252.59375 174.609375 C 254.40625 173.308594 256.722656 172.089844 258.292969 170.390625 C 258.257812 170.585938 258.242188 170.785156 258.242188 170.980469 C 258.242188 171.78125 258.484375 172.589844 258.914062 173.324219 C 259.332031 174.039062 260.273438 175.417969 261.265625 175.859375 C 245.203125 191.75 228.320312 206.792969 210.679688 220.914062 Z M 169.988281 121.53125 C 169.921875 121.402344 169.933594 121.25 170.019531 121.121094 C 171.992188 118.261719 175.566406 117.105469 178.464844 116.414062 C 178.480469 116.414062 178.492188 116.414062 178.511719 116.414062 C 178.789062 116.414062 178.949219 116.542969 179.003906 116.722656 C 179.65625 119.003906 180.164062 122.179688 178.890625 124.335938 C 178.808594 124.472656 178.679688 124.550781 178.53125 124.550781 C 178.367188 124.550781 178.207031 124.457031 178.125 124.3125 C 178.046875 124.179688 178.050781 124.027344 178.136719 123.894531 C 179.1875 122.109375 178.800781 119.386719 178.273438 117.375 C 175.667969 118.023438 172.496094 119.09375 170.777344 121.578125 C 170.6875 121.707031 170.5625 121.777344 170.414062 121.777344 C 170.234375 121.777344 170.066406 121.679688 169.988281 121.53125 Z M 166.910156 133.132812 C 166.816406 133.003906 166.796875 132.855469 166.863281 132.730469 C 166.941406 132.582031 167.113281 132.480469 167.289062 132.480469 C 167.4375 132.480469 167.5625 132.546875 167.652344 132.667969 C 168.050781 133.21875 168.683594 133.523438 169.433594 133.523438 C 170.273438 133.523438 171.132812 133.121094 171.617188 132.5 C 171.695312 132.394531 171.804688 132.339844 171.917969 132.339844 C 172.074219 132.339844 172.222656 132.441406 172.308594 132.601562 C 172.390625 132.769531 172.367188 132.949219 172.257812 133.09375 C 171.625 133.910156 170.59375 134.390625 169.496094 134.390625 C 168.433594 134.394531 167.488281 133.9375 166.910156 133.132812 Z M 153.335938 135.308594 C 152.265625 135.308594 151.320312 134.851562 150.742188 134.046875 C 150.648438 133.921875 150.628906 133.773438 150.695312 133.644531 C 150.773438 133.496094 150.945312 133.398438 151.121094 133.398438 C 151.269531 133.398438 151.394531 133.460938 151.484375 133.585938 C 151.882812 134.136719 152.515625 134.4375 153.265625 134.4375 C 154.105469 134.4375 154.964844 134.035156 155.449219 133.414062 C 155.527344 133.308594 155.636719 133.253906 155.75 133.253906 C 155.90625 133.253906 156.058594 133.359375 156.140625 133.519531 C 156.222656 133.683594 156.199219 133.863281 156.089844 134.007812 C 155.460938 134.824219 154.433594 135.308594 153.335938 135.308594 Z M 159.371094 135.820312 C 159.242188 135.699219 159.203125 135.535156 159.261719 135.375 C 159.328125 135.199219 159.511719 135.078125 159.691406 135.078125 C 159.800781 135.078125 159.902344 135.121094 159.984375 135.199219 C 160.09375 135.296875 160.210938 135.441406 160.332031 135.597656 C 160.597656 135.925781 160.898438 136.308594 161.207031 136.308594 C 161.585938 136.273438 161.917969 135.910156 162.203125 135.585938 C 162.335938 135.4375 162.464844 135.296875 162.578125 135.195312 C 162.660156 135.121094 162.765625 135.082031 162.871094 135.082031 C 163.058594 135.082031 163.246094 135.210938 163.3125 135.390625 C 163.371094 135.550781 163.324219 135.710938 163.191406 135.832031 C 163.046875 135.953125 162.910156 136.097656 162.765625 136.246094 C 162.453125 136.570312 162.132812 136.902344 161.726562 137.078125 L 161.726562 137.15625 C 161.652344 137.523438 161.679688 137.910156 161.707031 138.285156 C 161.71875 138.46875 161.734375 138.65625 161.734375 138.835938 C 161.734375 138.957031 161.699219 139.0625 161.621094 139.140625 C 161.539062 139.222656 161.421875 139.265625 161.300781 139.265625 C 161.082031 139.265625 160.859375 139.117188 160.855469 138.84375 C 160.855469 138.664062 160.84375 138.484375 160.832031 138.308594 C 160.8125 137.925781 160.792969 137.542969 160.839844 137.148438 C 160.390625 137.019531 160.074219 136.644531 159.765625 136.28125 C 159.644531 136.101562 159.515625 135.949219 159.371094 135.820312 Z M 159.371094 135.820312 " fill-opacity="1" fill-rule="nonzero"/></g><g fill="#545454" fill-opacity="1"><g transform="translate(151.114176, 261.909578)"><g><path d="M 0.71875 -4.921875 C 0.71875 -5.441406 0.96875 -5.703125 1.46875 -5.703125 C 1.96875 -5.703125 2.21875 -5.488281 2.21875 -5.0625 C 2.238281 -3.84375 2.664062 -2.90625 3.5 -2.25 C 4.34375 -1.59375 5.4375 -1.265625 6.78125 -1.265625 C 9.800781 -1.265625 11.3125 -2.882812 11.3125 -6.125 L 11.3125 -20.484375 L 6.8125 -20.484375 C 6.394531 -20.484375 6.1875 -20.734375 6.1875 -21.234375 C 6.1875 -21.703125 6.394531 -21.9375 6.8125 -21.9375 L 12.09375 -21.9375 C 12.570312 -21.9375 12.8125 -21.710938 12.8125 -21.265625 L 12.8125 -6.125 C 12.8125 -3.9375 12.265625 -2.335938 11.171875 -1.328125 C 10.085938 -0.316406 8.632812 0.1875 6.8125 0.1875 C 4.96875 0.1875 3.488281 -0.289062 2.375 -1.25 C 1.269531 -2.21875 0.71875 -3.441406 0.71875 -4.921875 Z M 0.71875 -4.921875 "/></g></g></g><g fill="#545454" fill-opacity="1"><g transform="translate(166.20416, 261.909578)"><g><path d="M 1.640625 -6.71875 C 1.523438 -6.84375 1.46875 -7.003906 1.46875 -7.203125 C 1.46875 -7.398438 1.523438 -7.5625 1.640625 -7.6875 C 1.765625 -7.820312 1.914062 -7.890625 2.09375 -7.890625 L 9.90625 -7.890625 C 10.0625 -7.890625 10.203125 -7.820312 10.328125 -7.6875 C 10.460938 -7.5625 10.53125 -7.398438 10.53125 -7.203125 C 10.53125 -7.003906 10.460938 -6.84375 10.328125 -6.71875 C 10.203125 -6.601562 10.0625 -6.546875 9.90625 -6.546875 L 2.09375 -6.546875 C 1.914062 -6.546875 1.765625 -6.601562 1.640625 -6.71875 Z M 1.640625 -6.71875 "/></g></g></g><g fill="#545454" fill-opacity="1"><g transform="translate(178.204148, 261.909578)"><g><path d="M 2.375 -0.625 L 2.375 -21.265625 C 2.375 -21.710938 2.613281 -21.9375 3.09375 -21.9375 L 7.765625 -21.9375 C 9.722656 -21.9375 11.238281 -21.578125 12.3125 -20.859375 C 13.382812 -20.148438 13.921875 -18.828125 13.921875 -16.890625 C 13.921875 -15.628906 13.691406 -14.5625 13.234375 -13.6875 C 12.773438 -12.820312 12.15625 -12.21875 11.375 -11.875 C 12.375 -11.457031 13.132812 -10.847656 13.65625 -10.046875 C 14.1875 -9.242188 14.453125 -8.113281 14.453125 -6.65625 L 14.453125 -6.125 C 14.453125 -3.976562 13.914062 -2.421875 12.84375 -1.453125 C 11.78125 -0.484375 10.347656 0 8.546875 0 L 3.09375 0 C 2.875 0 2.695312 -0.0546875 2.5625 -0.171875 C 2.4375 -0.296875 2.375 -0.445312 2.375 -0.625 Z M 3.875 -1.4375 L 8.4375 -1.4375 C 11.445312 -1.4375 12.953125 -3.019531 12.953125 -6.1875 L 12.953125 -6.6875 C 12.953125 -8.269531 12.566406 -9.414062 11.796875 -10.125 C 11.035156 -10.832031 9.914062 -11.1875 8.4375 -11.1875 L 3.875 -11.1875 Z M 3.875 -12.5625 L 7.921875 -12.5625 C 9.503906 -12.5625 10.648438 -12.875 11.359375 -13.5 C 12.066406 -14.132812 12.421875 -15.222656 12.421875 -16.765625 C 12.421875 -18.210938 12.03125 -19.191406 11.25 -19.703125 C 10.46875 -20.222656 9.316406 -20.484375 7.796875 -20.484375 L 3.875 -20.484375 Z M 3.875 -12.5625 "/></g></g></g><g fill="#545454" fill-opacity="1"><g transform="translate(194.164135, 261.909578)"><g><path d="M 2.375 -0.65625 L 2.375 -21.296875 C 2.375 -21.722656 2.625 -21.9375 3.125 -21.9375 C 3.625 -21.9375 3.875 -21.722656 3.875 -21.296875 L 3.875 -1.4375 L 12.71875 -1.4375 C 13.101562 -1.4375 13.296875 -1.195312 13.296875 -0.71875 C 13.296875 -0.238281 13.101562 0 12.71875 0 L 3.09375 0 C 2.613281 0 2.375 -0.21875 2.375 -0.65625 Z M 2.375 -0.65625 "/></g></g></g><g fill="#545454" fill-opacity="1"><g transform="translate(207.874122, 261.909578)"><g><path d="M 2.15625 -6.125 L 2.15625 -15.625 C 2.15625 -17.8125 2.703125 -19.410156 3.796875 -20.421875 C 4.890625 -21.429688 6.351562 -21.9375 8.1875 -21.9375 C 10.007812 -21.9375 11.472656 -21.429688 12.578125 -20.421875 C 13.691406 -19.410156 14.25 -17.8125 14.25 -15.625 L 14.25 -6.125 C 14.25 -3.9375 13.691406 -2.335938 12.578125 -1.328125 C 11.472656 -0.316406 10.007812 0.1875 8.1875 0.1875 C 6.351562 0.1875 4.890625 -0.316406 3.796875 -1.328125 C 2.703125 -2.335938 2.15625 -3.9375 2.15625 -6.125 Z M 3.65625 -6.125 C 3.65625 -2.882812 5.164062 -1.265625 8.1875 -1.265625 C 9.644531 -1.265625 10.769531 -1.664062 11.5625 -2.46875 C 12.351562 -3.28125 12.75 -4.5 12.75 -6.125 L 12.75 -15.625 C 12.75 -17.25 12.351562 -18.460938 11.5625 -19.265625 C 10.769531 -20.078125 9.644531 -20.484375 8.1875 -20.484375 C 5.164062 -20.484375 3.65625 -18.863281 3.65625 -15.625 Z M 3.65625 -6.125 "/></g></g></g><g fill="#545454" fill-opacity="1"><g transform="translate(224.284101, 261.909578)"><g><path d="M 2.15625 -6.125 L 2.15625 -15.625 C 2.15625 -17.8125 2.703125 -19.410156 3.796875 -20.421875 C 4.890625 -21.429688 6.34375 -21.9375 8.15625 -21.9375 C 10.019531 -21.9375 11.5 -21.457031 12.59375 -20.5 C 13.695312 -19.550781 14.25 -18.335938 14.25 -16.859375 C 14.25 -16.335938 14 -16.078125 13.5 -16.078125 C 13.019531 -16.078125 12.769531 -16.285156 12.75 -16.703125 C 12.40625 -19.222656 10.882812 -20.484375 8.1875 -20.484375 C 5.164062 -20.484375 3.65625 -18.863281 3.65625 -15.625 L 3.65625 -6.125 C 3.65625 -2.882812 5.164062 -1.265625 8.1875 -1.265625 C 9.644531 -1.265625 10.769531 -1.664062 11.5625 -2.46875 C 12.351562 -3.28125 12.75 -4.5 12.75 -6.125 L 12.75 -10.140625 L 8.3125 -10.140625 C 8.132812 -10.140625 7.988281 -10.207031 7.875 -10.34375 C 7.757812 -10.488281 7.703125 -10.648438 7.703125 -10.828125 C 7.703125 -11.003906 7.757812 -11.160156 7.875 -11.296875 C 7.988281 -11.441406 8.132812 -11.515625 8.3125 -11.515625 L 13.625 -11.515625 C 13.800781 -11.515625 13.945312 -11.441406 14.0625 -11.296875 C 14.1875 -11.160156 14.25 -11.003906 14.25 -10.828125 L 14.25 -6.125 C 14.25 -3.9375 13.691406 -2.335938 12.578125 -1.328125 C 11.472656 -0.316406 10.007812 0.1875 8.1875 0.1875 C 6.351562 0.1875 4.890625 -0.316406 3.796875 -1.328125 C 2.703125 -2.335938 2.15625 -3.9375 2.15625 -6.125 Z M 2.15625 -6.125 "/></g></g></g></svg>